nColumns=19
nRows=64
DataType=double
version=3
OpenSimVersion=4.1
endheader
time	ground_force_calcn_r_vx	ground_force_calcn_r_vy	ground_force_calcn_r_vz	ground_force_calcn_r_px	ground_force_calcn_r_py	ground_force_calcn_r_pz	ground_force_calcn_r_mx	ground_force_calcn_r_my	ground_force_calcn_r_mz	ground_force_calcn_l_vx	ground_force_calcn_l_vy	ground_force_calcn_l_vz	ground_force_calcn_l_px	ground_force_calcn_l_py	ground_force_calcn_l_pz	ground_force_calcn_l_mx	ground_force_calcn_l_my	ground_force_calcn_l_mz
0.166667	-3.07726	14.3452	1.92259	1.01998	0	-0.650444	-0.720656	3.35947	0.450246	0	0	0	0	0	0	0	0	0
0.175	-7.00944	34.8254	-0.737595	1.11415	0	-0.635267	-1.07172	5.32469	-0.112776	0	0	0	0	0	0	0	0	0
0.183333	-17.1382	96.2645	-6.24538	1.13284	0	-0.616218	-1.25959	7.07508	-0.459012	0	0	0	0	0	0	0	0	0
0.191667	-38.0439	252.69	-12.3784	1.14109	0	-0.613107	-1.24433	8.26492	-0.404869	0	0	0	0	0	0	0	0	0
0.2	-69.558	525.962	-15.1419	1.13987	0	-0.616897	-1.11782	8.45237	-0.243334	0	0	0	0	0	0	0	0	0
0.208333	-99.608	831.743	-10.2711	1.13043	0	-0.621392	-0.897894	7.49757	-0.0925863	0	0	0	0	0	0	0	0	0
0.216667	-123.994	1046.44	3.70134	1.1169	0	-0.624794	-0.661388	5.58175	0.0197431	0	0	0	0	0	0	0	0	0
0.225	-163.047	1155.66	22.1503	1.10168	0	-0.626475	-0.449186	3.1838	0.061023	0	0	0	0	0	0	0	0	0
0.233333	-212.57	1234.97	36.1087	1.08307	0	-0.626784	-0.164879	0.957899	0.0280075	0	0	0	0	0	0	0	0	0
0.241667	-231.214	1342.89	39.5946	1.05479	0	-0.627138	0.0965607	-0.560823	-0.0165357	0	0	0	0	0	0	0	0	0
0.25	-203.286	1487.41	34.3001	1.01783	0	-0.628027	0.152511	-1.11589	-0.0257329	0	0	0	0	0	0	0	0	0
0.258333	-154.925	1638.63	25.7989	0.981635	0	-0.628355	0.0631916	-0.668374	-0.010523	0	0	0	0	0	0	0	0	0
0.266667	-111.498	1758.24	17.0392	0.950491	0	-0.627506	-0.0365709	0.576697	0.00558881	0	0	0	0	0	0	0	0	0
0.275	-74.7791	1831.41	7.76522	0.921202	0	-0.626212	-0.0912668	2.23521	0.00947734	0	0	0	0	0	0	0	0	0
0.283333	-36.6165	1865.96	-1.4752	0.890567	0	-0.625282	-0.0759421	3.86997	-0.00305953	0	0	0	0	0	0	0	0	0
0.291667	2.26233	1869.53	-8.24982	0.85941	0	-0.624645	0.00615845	5.08918	-0.0224574	0	0	0	0	0	0	0	0	0
0.3	39.0398	1841.07	-11.1273	0.828849	0	-0.624018	0.11927	5.62462	-0.0339949	0	0	0	0	0	0	0	0	0
0.308333	80.0607	1777.6	-10.919	0.796997	0	-0.623689	0.241926	5.37151	-0.0329949	0	0	0	0	0	0	0	0	0
0.316667	132.946	1677.19	-8.50443	0.761211	0	-0.623897	0.347666	4.38599	-0.0222398	0	0	0	0	0	0	0	0	0
0.325	195.418	1542.93	-3.57709	0.72202	0	-0.624454	0.363032	2.86633	-0.00664522	0	0	0	0	0	0	0	0	0
0.333333	250.903	1384.73	3.70404	0.683813	0	-0.625361	0.203418	1.12266	0.00300303	0	0	0	0	0	0	0	0	0
0.341667	282.61	1207.56	11.4896	0.649054	0	-0.626633	-0.117818	-0.503422	-0.00478993	0	0	0	0	0	0	0	0	0
0.35	288.366	1007.37	17.5291	0.615369	0	-0.627783	-0.496574	-1.73472	-0.0301855	0	0	0	0	0	0	0	0	0
0.358333	273.203	788.291	20.8491	0.581228	0	-0.628391	-0.830629	-2.39667	-0.0633883	0	0	0	0	0	0	0	0	0
0.366667	239.204	570.233	21.7482	0.55017	0	-0.628563	-1.02761	-2.44971	-0.0934301	0	0	0	0	0	0	0	0	0
0.375	188.439	376.378	20.7367	0.526698	0	-0.627885	-1.00571	-2.00875	-0.110673	0	0	0	0	0	0	0	0	0
0.383333	129.385	223.626	18.019	0.513276	0	-0.624835	-0.746121	-1.28958	-0.10391	0	0	0	0	0	0	0	0	0
0.391667	75.0051	118.6	14.029	0.513784	0	-0.618203	-0.319643	-0.50543	-0.0597865	0	0	0	0	0	0	0	0	0
0.4	34.8568	56.1392	9.91433	0.528653	0	-0.605994	0.140766	0.226714	0.0400382	0	0	0	0	0	0	0	0	0
0.408333	11.8756	24.5067	6.89184	0.53208	0	-0.57992	0.445843	0.920053	0.258739	0	0	0	0	0	0	0	0	0
0.416667	2.56947	11.8509	5.24754	0.51602	0	-0.561372	0.322357	1.48678	0.658339	0	0	0	0	0	0	0	0	0
0.425	0	0	0	0	0	0	0	0	0	0	0	0	0	0	0	0	0	0
0.433333	0	0	0	0	0	0	0	0	0	0	0	0	0	0	0	0	0	0
0.441667	0	0	0	0	0	0	0	0	0	0	0	0	0	0	0	0	0	0
0.45	0	0	0	0	0	0	0	0	0	0	0	0	0	0	0	0	0	0
0.458333	0	0	0	0	0	0	0	0	0	0	0	0	0	0	0	0	0	0
0.466667	0	0	0	0	0	0	0	0	0	0	0	0	0	0	0	0	0	0
0.475	0	0	0	0	0	0	0	0	0	0	0	0	0	0	0	0	0	0
0.483333	0	0	0	0	0	0	0	0	0	0	0	0	0	0	0	0	0	0
0.491667	0	0	0	0	0	0	0	0	0	-4.17524	14.5493	3.27213	1.00452	0	-0.643655	-0.204161	0.711433	0.160001
0.5	0	0	0	0	0	0	0	0	0	-9.93933	44.0728	3.89345	1.10612	0	-0.641133	-0.140834	0.624485	0.0551679
0.508333	0	0	0	0	0	0	0	0	0	-24.5297	128.06	4.57154	1.13386	0	-0.64552	-0.155066	0.80954	0.0288992
0.516667	0	0	0	0	0	0	0	0	0	-48.5282	315.366	5.11553	1.13839	0	-0.646371	-0.225727	1.46691	0.0237947
0.525	0	0	0	0	0	0	0	0	0	-77.966	619.814	4.3924	1.13354	0	-0.646607	-0.336597	2.67588	0.018963
0.533333	0	0	0	0	0	0	0	0	0	-110.245	943.655	0.0560647	1.12342	0	-0.647033	-0.507165	4.34115	0.000257917
0.541667	0	0	0	0	0	0	0	0	0	-145.692	1133.72	-8.64327	1.1101	0	-0.647298	-0.792445	6.16652	-0.0470125
0.55	0	0	0	0	0	0	0	0	0	-186.297	1171.84	-17.1207	1.09466	0	-0.64775	-1.22599	7.71165	-0.112668
0.558333	0	0	0	0	0	0	0	0	0	-228.682	1192.62	-17.0823	1.07587	0	-0.648968	-1.64737	8.59138	-0.123057
0.566667	0	0	0	0	0	0	0	0	0	-250.871	1298.42	-5.10257	1.05219	0	-0.650233	-1.68123	8.70146	-0.0341951
0.575	0	0	0	0	0	0	0	0	0	-234.316	1471.1	12.0057	1.02334	0	-0.651014	-1.28303	8.05522	0.0657388
0.583333	0	0	0	0	0	0	0	0	0	-192.116	1637.35	24.5944	0.991647	0	-0.651914	-0.78803	6.71618	0.100883
0.591667	0	0	0	0	0	0	0	0	0	-143.125	1754.61	31.3762	0.960099	0	-0.653115	-0.402344	4.93247	0.088203
0.6	0	0	0	0	0	0	0	0	0	-99.0141	1826.33	38.1137	0.931198	0	-0.654111	-0.163499	3.01576	0.0629359
0.608333	0	0	0	0	0	0	0	0	0	-64.8858	1860.83	46.7591	0.905426	0	-0.6547	-0.0437342	1.25423	0.0315165
0.616667	0	0	0	0	0	0	0	0	0	-33.0395	1856.59	52.4965	0.87935	0	-0.655412	0.0020474	-0.11505	-0.00325312
0.625	0	0	0	0	0	0	0	0	0	3.48523	1818.2	51.6857	0.850085	0	-0.656527	-0.00179034	-0.933999	-0.0265506
0.633333	0	0	0	0	0	0	0	0	0	41.6107	1755.68	46.368	0.81922	0	-0.657419	-0.0270548	-1.14153	-0.0301479
0.641667	0	0	0	0	0	0	0	0	0	77.6696	1668.64	39.2656	0.789449	0	-0.657374	-0.0360645	-0.774804	-0.0182323
0.65	0	0	0	0	0	0	0	0	0	119.502	1549.81	29.3471	0.758283	0	-0.656453	0.00303148	0.0393152	0.000744468
0.658333	0	0	0	0	0	0	0	0	0	176.355	1400.82	15.0578	0.720926	0	-0.655118	0.136864	1.08714	0.011686
0.666667	0	0	0	0	0	0	0	0	0	233.366	1232.58	-0.934928	0.679731	0	-0.653618	0.395087	2.08675	-0.00158283
0.675	0	0	0	0	0	0	0	0	0	263.034	1053.5	-13.0926	0.642965	0	-0.651932	0.695081	2.78392	-0.0345979
0.683333	0	0	0	0	0	0	0	0	0	259.414	863.602	-18.4491	0.614146	0	-0.649894	0.914264	3.04363	-0.0650209
0.691667	0	0	0	0	0	0	0	0	0	236.371	663.562	-18.818	0.587686	0	-0.6476	1.01123	2.83882	-0.0805064
